# xmcd
#
# Track frame offsets:
#	150
#	17897
#	34425
#	57818
#	72969
#	90784
#	110249
#	128253
#	144581
#	165178
#	185006
#
# Disc length: 2739 seconds
#
# Revision: 0
# Processed by: cddbd v1.4PL0 Copyright (c) Steve Scherf et al.
# Submitted via: dBpowerAMP V4.0
#
DISCID=8d0ab10b
DTITLE=David Gogo  - Change of Pace
DYEAR=2000
DGENRE=Blues
TTITLE0=Sad and Lonely
TTITLE1=(It's All over Now) Baby Blue
TTITLE2=Sad and Beautiful
TTITLE3=By Your Side
TTITLE4=Runaground
TTITLE5=Face in the Mirror
TTITLE6=Drag My Blues
TTITLE7=Change of Pace
TTITLE8=Mr. Slow
TTITLE9=For You
TTITLE10=Butterfly Tattoo
EXTD=
EXTT0=
EXTT1=
EXTT2=
EXTT3=
EXTT4=
EXTT5=
EXTT6=
EXTT7=
EXTT8=
EXTT9=
EXTT10=
PLAYORDER=
